# This file uses centimeters as units for non-parametric coordinates.

mtllib Plane.mtl
g default
v 0.240005 -0.239013 -0.260703
v 0.217043 -0.172480 -0.325139
v 0.167075 -0.110429 -0.377662
v 0.094991 -0.058933 -0.413132
v 0.007849 -0.023035 -0.428076
v -0.085823 -0.006248 -0.421031
v -0.176855 -0.010214 -0.392688
v -0.256336 -0.034547 -0.345820
v -0.316486 -0.076863 -0.285015
v -0.351417 -0.133021 -0.216225
v -0.357709 -0.197524 -0.146185
v -0.334748 -0.264058 -0.081749
v -0.284779 -0.326109 -0.029226
v -0.212696 -0.377604 0.006244
v -0.125553 -0.413502 0.021188
v -0.031881 -0.430290 0.014143
v 0.059151 -0.426323 -0.014200
v 0.138632 -0.401991 -0.061069
v 0.198782 -0.359675 -0.121873
v 0.233713 -0.303516 -0.190663
v 0.349212 0.197524 0.151130
v 0.326250 0.264058 0.086695
v 0.276282 0.326109 0.034172
v 0.204198 0.377604 -0.001298
v 0.117055 0.413502 -0.016242
v 0.023383 0.430290 -0.009197
v -0.067649 0.426323 0.019146
v -0.147130 0.401991 0.066014
v -0.207279 0.359674 0.126819
v -0.242210 0.303516 0.195609
v -0.248503 0.239013 0.265649
v -0.225541 0.172480 0.330085
v -0.175573 0.110429 0.382608
v -0.103489 0.058933 0.418078
v -0.016346 0.023035 0.433022
v 0.077326 0.006248 0.425977
v 0.168358 0.010214 0.397633
v 0.247839 0.034547 0.350765
v 0.307989 0.076863 0.289961
v 0.342919 0.133021 0.221171
v 0.648069 0.176779 0.093871
v 0.602145 0.309846 -0.035000
v 0.502209 0.433949 -0.140047
v 0.358042 0.536939 -0.210986
v 0.183756 0.608736 -0.240874
v -0.003588 0.642311 -0.226784
v -0.185652 0.634378 -0.170097
v -0.344614 0.585713 -0.076361
v -0.464913 0.501080 0.045248
v -0.534775 0.388764 0.182827
v -0.547360 0.259758 0.322908
v -0.501436 0.126691 0.451780
v -0.401500 0.002588 0.556826
v -0.257333 -0.100402 0.627766
v -0.083047 -0.172199 0.657653
v 0.104297 -0.205774 0.643564
v 0.286361 -0.197841 0.586877
v 0.445323 -0.149176 0.493141
v 0.565623 -0.064543 0.371531
v 0.635484 0.047774 0.233952
v 0.538862 -0.259758 -0.317963
v 0.492939 -0.126691 -0.446834
v 0.393002 -0.002589 -0.551881
v 0.248835 0.100402 -0.622820
v 0.074549 0.172199 -0.652708
v -0.112795 0.205774 -0.638618
v -0.294859 0.197840 -0.581931
v -0.453820 0.149176 -0.488195
v -0.574120 0.064543 -0.366586
v -0.643981 -0.047774 -0.229007
v -0.656566 -0.176779 -0.088925
v -0.610643 -0.309846 0.039946
v -0.510706 -0.433949 0.144993
v -0.366539 -0.536939 0.215932
v -0.192253 -0.608736 0.245820
v -0.004909 -0.642311 0.231730
v 0.177155 -0.634378 0.175043
v 0.336116 -0.585713 0.081307
v 0.456416 -0.501080 -0.040303
v 0.526278 -0.388764 -0.177882
vt 0.000000 1.000000
vt 0.050000 1.000000
vt 0.100000 1.000000
vt 0.150000 1.000000
vt 0.200000 1.000000
vt 0.250000 1.000000
vt 0.300000 1.000000
vt 0.350000 1.000000
vt 0.400000 1.000000
vt 0.450000 1.000000
vt 0.500000 1.000000
vt 0.550000 1.000000
vt 0.600000 1.000000
vt 0.650000 1.000000
vt 0.700000 1.000000
vt 0.750000 1.000000
vt 0.800000 1.000000
vt 0.850000 1.000000
vt 0.900000 1.000000
vt 0.950000 1.000000
vt 1.000000 1.000000
vt 0.000000 0.750000
vt 0.050000 0.750000
vt 0.100000 0.750000
vt 0.150000 0.750000
vt 0.200000 0.750000
vt 0.250000 0.750000
vt 0.300000 0.750000
vt 0.350000 0.750000
vt 0.400000 0.750000
vt 0.450000 0.750000
vt 0.500000 0.750000
vt 0.550000 0.750000
vt 0.600000 0.750000
vt 0.650000 0.750000
vt 0.700000 0.750000
vt 0.750000 0.750000
vt 0.800000 0.750000
vt 0.850000 0.750000
vt 0.900000 0.750000
vt 0.950000 0.750000
vt 1.000000 0.750000
vt 0.000000 0.500000
vt 0.050000 0.500000
vt 0.100000 0.500000
vt 0.150000 0.500000
vt 0.200000 0.500000
vt 0.250000 0.500000
vt 0.300000 0.500000
vt 0.350000 0.500000
vt 0.400000 0.500000
vt 0.450000 0.500000
vt 0.500000 0.500000
vt 0.550000 0.500000
vt 0.600000 0.500000
vt 0.650000 0.500000
vt 0.700000 0.500000
vt 0.750000 0.500000
vt 0.800000 0.500000
vt 0.850000 0.500000
vt 0.900000 0.500000
vt 0.950000 0.500000
vt 1.000000 0.500000
vt 0.000000 0.250000
vt 0.050000 0.250000
vt 0.100000 0.250000
vt 0.150000 0.250000
vt 0.200000 0.250000
vt 0.250000 0.250000
vt 0.300000 0.250000
vt 0.350000 0.250000
vt 0.400000 0.250000
vt 0.450000 0.250000
vt 0.500000 0.250000
vt 0.550000 0.250000
vt 0.600000 0.250000
vt 0.650000 0.250000
vt 0.700000 0.250000
vt 0.750000 0.250000
vt 0.800000 0.250000
vt 0.850000 0.250000
vt 0.900000 0.250000
vt 0.950000 0.250000
vt 1.000000 0.250000
vt 0.000000 0.000000
vt 0.050000 0.000000
vt 0.100000 0.000000
vt 0.150000 0.000000
vt 0.200000 0.000000
vt 0.250000 0.000000
vt 0.300000 0.000000
vt 0.350000 0.000000
vt 0.400000 0.000000
vt 0.450000 0.000000
vt 0.500000 0.000000
vt 0.550000 0.000000
vt 0.600000 0.000000
vt 0.650000 0.000000
vt 0.700000 0.000000
vt 0.750000 0.000000
vt 0.800000 0.000000
vt 0.850000 0.000000
vt 0.900000 0.000000
vt 0.950000 0.000000
vt 1.000000 0.000000
vn -0.904577 -0.150128 0.399001
vn -0.979862 0.068015 0.187737
vn -0.979862 0.068015 0.187737
vn -0.904577 -0.150128 0.399001
vn -0.740746 -0.353575 0.571209
vn -0.740746 -0.353575 0.571209
vn -0.504406 -0.522412 0.687503
vn -0.504406 -0.522412 0.687503
vn -0.218691 -0.640112 0.736499
vn -0.218691 -0.640112 0.736499
vn 0.088431 -0.695153 0.713402
vn 0.088431 -0.695153 0.713402
vn 0.386897 -0.682148 0.620472
vn 0.386897 -0.682148 0.620472
vn 0.647490 -0.602369 0.466806
vn 0.647490 -0.602369 0.466806
vn 0.844703 -0.463626 0.267446
vn 0.844703 -0.463626 0.267446
vn 0.959231 -0.279501 0.041906
vn 0.959231 -0.279501 0.041906
vn 0.979862 -0.068015 -0.187736
vn 0.979862 -0.068015 -0.187736
vn 0.904577 0.150127 -0.399001
vn 0.904577 0.150127 -0.399001
vn 0.740747 0.353575 -0.571209
vn 0.740747 0.353575 -0.571209
vn 0.504406 0.522412 -0.687503
vn 0.504406 0.522412 -0.687503
vn 0.218691 0.640112 -0.736499
vn 0.218691 0.640112 -0.736499
vn -0.088431 0.695153 -0.713402
vn -0.088431 0.695153 -0.713402
vn -0.386897 0.682148 -0.620472
vn -0.386897 0.682148 -0.620472
vn -0.647490 0.602369 -0.466806
vn -0.647490 0.602369 -0.466806
vn -0.844703 0.463626 -0.267446
vn -0.844703 0.463626 -0.267446
vn -0.959231 0.279500 -0.041905
vn -0.959231 0.279500 -0.041905
vn 0.179028 0.715637 0.675139
vn 0.179028 0.715637 0.675139
vn 0.179028 0.715637 0.675139
vn 0.179028 0.715637 0.675139
vn 0.179028 0.715637 0.675139
vn 0.179028 0.715637 0.675139
vn 0.179028 0.715637 0.675139
vn 0.179028 0.715637 0.675139
vn 0.179028 0.715637 0.675139
vn 0.179028 0.715637 0.675139
vn 0.179028 0.715637 0.675139
vn 0.179028 0.715637 0.675139
vn 0.179028 0.715637 0.675139
vn 0.179028 0.715637 0.675139
vn 0.179028 0.715637 0.675139
vn 0.179028 0.715637 0.675139
vn 0.179028 0.715637 0.675139
vn 0.179028 0.715637 0.675139
vn 0.179028 0.715637 0.675139
vn 0.179028 0.715637 0.675139
vn 0.179028 0.715637 0.675139
vn 0.179028 0.715637 0.675139
vn 0.179028 0.715637 0.675139
vn 0.179028 0.715637 0.675139
vn 0.179028 0.715637 0.675139
vn 0.179028 0.715637 0.675139
vn 0.179028 0.715637 0.675139
vn 0.179028 0.715637 0.675139
vn 0.179028 0.715637 0.675139
vn 0.179028 0.715637 0.675139
vn 0.179028 0.715637 0.675139
vn 0.179028 0.715637 0.675139
vn 0.179028 0.715637 0.675139
vn 0.179028 0.715637 0.675139
vn 0.179028 0.715637 0.675139
vn 0.179028 0.715637 0.675139
vn 0.179028 0.715637 0.675139
vn 0.179028 0.715637 0.675139
vn 0.179028 0.715637 0.675139
vn 0.179028 0.715637 0.675139
vn 0.904577 0.150128 -0.399001
vn 0.979862 -0.068015 -0.187737
vn 0.979862 -0.068015 -0.187737
vn 0.904577 0.150128 -0.399001
vn 0.740746 0.353575 -0.571209
vn 0.740746 0.353575 -0.571209
vn 0.504406 0.522412 -0.687503
vn 0.504406 0.522412 -0.687503
vn 0.218691 0.640112 -0.736499
vn 0.218691 0.640112 -0.736499
vn -0.088431 0.695153 -0.713402
vn -0.088431 0.695153 -0.713402
vn -0.386897 0.682148 -0.620472
vn -0.386897 0.682148 -0.620472
vn -0.647490 0.602369 -0.466806
vn -0.647490 0.602369 -0.466806
vn -0.844703 0.463626 -0.267446
vn -0.844703 0.463626 -0.267446
vn -0.959231 0.279501 -0.041906
vn -0.959231 0.279501 -0.041906
vn -0.979862 0.068015 0.187736
vn -0.979862 0.068015 0.187736
vn -0.904577 -0.150127 0.399001
vn -0.904577 -0.150127 0.399001
vn -0.740747 -0.353575 0.571209
vn -0.740747 -0.353575 0.571209
vn -0.504406 -0.522412 0.687503
vn -0.504406 -0.522412 0.687503
vn -0.218691 -0.640112 0.736499
vn -0.218691 -0.640112 0.736499
vn 0.088431 -0.695153 0.713402
vn 0.088431 -0.695153 0.713402
vn 0.386897 -0.682148 0.620472
vn 0.386897 -0.682148 0.620472
vn 0.647490 -0.602369 0.466806
vn 0.647490 -0.602369 0.466806
vn 0.844703 -0.463626 0.267446
vn 0.844703 -0.463626 0.267446
vn 0.959231 -0.279500 0.041905
vn 0.959231 -0.279500 0.041905
vn -0.179028 -0.715637 -0.675139
vn -0.179028 -0.715637 -0.675139
vn -0.179028 -0.715637 -0.675139
vn -0.179028 -0.715637 -0.675139
vn -0.179028 -0.715637 -0.675139
vn -0.179028 -0.715637 -0.675139
vn -0.179028 -0.715637 -0.675139
vn -0.179028 -0.715637 -0.675139
vn -0.179028 -0.715637 -0.675139
vn -0.179028 -0.715637 -0.675139
vn -0.179028 -0.715637 -0.675139
vn -0.179028 -0.715637 -0.675139
vn -0.179028 -0.715637 -0.675139
vn -0.179028 -0.715637 -0.675139
vn -0.179028 -0.715637 -0.675139
vn -0.179028 -0.715637 -0.675139
vn -0.179028 -0.715637 -0.675139
vn -0.179028 -0.715637 -0.675139
vn -0.179028 -0.715637 -0.675139
vn -0.179028 -0.715637 -0.675139
vn -0.179028 -0.715637 -0.675139
vn -0.179028 -0.715637 -0.675139
vn -0.179028 -0.715637 -0.675139
vn -0.179028 -0.715637 -0.675139
vn -0.179028 -0.715637 -0.675139
vn -0.179028 -0.715637 -0.675139
vn -0.179028 -0.715637 -0.675139
vn -0.179028 -0.715637 -0.675139
vn -0.179028 -0.715637 -0.675139
vn -0.179028 -0.715637 -0.675139
vn -0.179028 -0.715637 -0.675139
vn -0.179028 -0.715637 -0.675139
vn -0.179028 -0.715637 -0.675139
vn -0.179028 -0.715637 -0.675139
vn -0.179028 -0.715637 -0.675139
vn -0.179028 -0.715637 -0.675139
vn -0.179028 -0.715637 -0.675139
vn -0.179028 -0.715637 -0.675139
vn -0.179028 -0.715637 -0.675139
vn -0.179028 -0.715637 -0.675139
s 1
g pPipe1
usemtl initialShadingGroup
f 2/2/1 1/1/2 21/22/3 22/23/4
f 3/3/5 2/2/1 22/23/4 23/24/6
f 4/4/7 3/3/5 23/24/6 24/25/8
f 5/5/9 4/4/7 24/25/8 25/26/10
f 6/6/11 5/5/9 25/26/10 26/27/12
f 7/7/13 6/6/11 26/27/12 27/28/14
f 8/8/15 7/7/13 27/28/14 28/29/16
f 9/9/17 8/8/15 28/29/16 29/30/18
f 10/10/19 9/9/17 29/30/18 30/31/20
f 11/11/21 10/10/19 30/31/20 31/32/22
f 12/12/23 11/11/21 31/32/22 32/33/24
f 13/13/25 12/12/23 32/33/24 33/34/26
f 14/14/27 13/13/25 33/34/26 34/35/28
f 15/15/29 14/14/27 34/35/28 35/36/30
f 16/16/31 15/15/29 35/36/30 36/37/32
f 17/17/33 16/16/31 36/37/32 37/38/34
f 18/18/35 17/17/33 37/38/34 38/39/36
f 19/19/37 18/18/35 38/39/36 39/40/38
f 20/20/39 19/19/37 39/40/38 40/41/40
f 1/21/2 20/20/39 40/41/40 21/42/3
s 2
f 22/23/41 21/22/42 41/43/43 42/44/44
f 23/24/45 22/23/41 42/44/44 43/45/46
f 24/25/47 23/24/45 43/45/46 44/46/48
f 25/26/49 24/25/47 44/46/48 45/47/50
f 26/27/51 25/26/49 45/47/50 46/48/52
f 27/28/53 26/27/51 46/48/52 47/49/54
f 28/29/55 27/28/53 47/49/54 48/50/56
f 29/30/57 28/29/55 48/50/56 49/51/58
f 30/31/59 29/30/57 49/51/58 50/52/60
f 31/32/61 30/31/59 50/52/60 51/53/62
f 32/33/63 31/32/61 51/53/62 52/54/64
f 33/34/65 32/33/63 52/54/64 53/55/66
f 34/35/67 33/34/65 53/55/66 54/56/68
f 35/36/69 34/35/67 54/56/68 55/57/70
f 36/37/71 35/36/69 55/57/70 56/58/72
f 37/38/73 36/37/71 56/58/72 57/59/74
f 38/39/75 37/38/73 57/59/74 58/60/76
f 39/40/77 38/39/75 58/60/76 59/61/78
f 40/41/79 39/40/77 59/61/78 60/62/80
f 21/42/42 40/41/79 60/62/80 41/63/43
s 3
f 42/44/81 41/43/82 61/64/83 62/65/84
f 43/45/85 42/44/81 62/65/84 63/66/86
f 44/46/87 43/45/85 63/66/86 64/67/88
f 45/47/89 44/46/87 64/67/88 65/68/90
f 46/48/91 45/47/89 65/68/90 66/69/92
f 47/49/93 46/48/91 66/69/92 67/70/94
f 48/50/95 47/49/93 67/70/94 68/71/96
f 49/51/97 48/50/95 68/71/96 69/72/98
f 50/52/99 49/51/97 69/72/98 70/73/100
f 51/53/101 50/52/99 70/73/100 71/74/102
f 52/54/103 51/53/101 71/74/102 72/75/104
f 53/55/105 52/54/103 72/75/104 73/76/106
f 54/56/107 53/55/105 73/76/106 74/77/108
f 55/57/109 54/56/107 74/77/108 75/78/110
f 56/58/111 55/57/109 75/78/110 76/79/112
f 57/59/113 56/58/111 76/79/112 77/80/114
f 58/60/115 57/59/113 77/80/114 78/81/116
f 59/61/117 58/60/115 78/81/116 79/82/118
f 60/62/119 59/61/117 79/82/118 80/83/120
f 41/63/82 60/62/119 80/83/120 61/84/83
s 4
f 62/65/121 61/64/122 1/85/123 2/86/124
f 63/66/125 62/65/121 2/86/124 3/87/126
f 64/67/127 63/66/125 3/87/126 4/88/128
f 65/68/129 64/67/127 4/88/128 5/89/130
f 66/69/131 65/68/129 5/89/130 6/90/132
f 67/70/133 66/69/131 6/90/132 7/91/134
f 68/71/135 67/70/133 7/91/134 8/92/136
f 69/72/137 68/71/135 8/92/136 9/93/138
f 70/73/139 69/72/137 9/93/138 10/94/140
f 71/74/141 70/73/139 10/94/140 11/95/142
f 72/75/143 71/74/141 11/95/142 12/96/144
f 73/76/145 72/75/143 12/96/144 13/97/146
f 74/77/147 73/76/145 13/97/146 14/98/148
f 75/78/149 74/77/147 14/98/148 15/99/150
f 76/79/151 75/78/149 15/99/150 16/100/152
f 77/80/153 76/79/151 16/100/152 17/101/154
f 78/81/155 77/80/153 17/101/154 18/102/156
f 79/82/157 78/81/155 18/102/156 19/103/158
f 80/83/159 79/82/157 19/103/158 20/104/160
f 61/84/122 80/83/159 20/104/160 1/105/123
